<?xml version="1.0" standalone="no"?>
<!DOCTYPE svg PUBLIC "-//W3C//DTD SVG 20010904//EN"
 "http://www.w3.org/TR/2001/REC-SVG-20010904/DTD/svg10.dtd">
<svg version="1.0" xmlns="http://www.w3.org/2000/svg"
 width="260.000000pt" height="260.000000pt" viewBox="0 0 260.000000 260.000000"
 preserveAspectRatio="xMidYMid meet">
<metadata>
Created by potrace 1.14, written by Peter Selinger 2001-2017
</metadata>
<g transform="translate(0.000000,260.000000) scale(0.100000,-0.100000)"
fill="#000000" stroke="none">
<path d="M595 2580 c-229 -49 -394 -217 -454 -463 -32 -129 -35 -320 -7 -446
51 -230 181 -387 380 -458 62 -22 111 -28 221 -28 194 0 292 38 410 159 74 76
118 151 145 247 8 31 19 57 23 58 4 1 92 -43 195 -98 189 -101 304 -161 555
-294 l137 -72 -149 -3 -149 -3 -7 -37 c-3 -20 -15 -73 -25 -117 -11 -44 -21
-91 -24 -105 -9 -47 -147 -645 -150 -647 -3 -3 -25 86 -33 129 -2 15 -119 518
-161 698 l-17 75 -178 3 -177 2 0 -585 0 -585 113 0 113 0 -1 475 c0 260 3
471 6 467 3 -4 12 -34 18 -67 7 -33 14 -67 16 -75 6 -26 135 -604 140 -627 3
-13 7 -33 10 -45 3 -13 10 -47 16 -75 l12 -53 118 0 c134 0 120 -10 144 103 8
36 15 70 20 92 2 11 41 186 87 389 l83 369 3 -477 2 -476 113 0 114 0 -1 566
c-1 311 1 567 3 569 2 3 17 -3 33 -11 17 -9 34 -12 38 -7 4 4 35 60 68 123
l61 114 -52 29 c-29 15 -113 60 -187 99 -74 39 -166 88 -205 108 -82 44 -178
95 -330 176 -60 32 -180 95 -265 140 -85 46 -155 82 -156 81 -11 -14 -124
-237 -124 -244 0 -5 29 -24 65 -42 36 -17 65 -33 65 -35 0 -2 -47 -3 -105 -2
-58 1 -113 -1 -121 -4 -8 -3 -25 -31 -38 -61 -32 -78 -71 -126 -130 -157 -43
-22 -64 -26 -136 -27 -74 0 -93 4 -142 28 -130 64 -191 195 -192 412 -2 242
60 384 199 458 32 17 58 21 130 21 138 0 216 -45 265 -153 12 -25 25 -53 29
-61 11 -20 271 -23 279 -2 9 23 -29 140 -65 199 -68 115 -156 184 -290 229
-63 21 -101 27 -198 30 -66 2 -138 -1 -160 -6z"/>
</g>
</svg>
